<svg width="57" height="64" viewBox="0 0 57 64" fill="none" xmlns="http://www.w3.org/2000/svg">
<g id="Group 1">
<path id="Shape" fill-rule="evenodd" clip-rule="evenodd" d="M0 0L5.1358 57.602L28.183 64L51.293 57.5926L56.4343 0H0ZM46.9154 53.9685L28.2645 59.0994L28.2645 51.7678L28.2084 51.7811L13.7123 47.7674L12.7225 36.6823H19.8148L20.3296 42.309L28.2099 44.4253L28.2645 44.4171V33.0141L12.3745 33.014L11.7558 25.9598V25.9598L28.2645 18.894L28.2646 18.406H11.1276L10.5016 11.3517H28.1929H28.2646L28.2645 4.79706H51.2852L46.9154 53.9685Z" fill="#7B4AE2" fill-opacity="0.5"/>
<path id="Shape_2" fill-rule="evenodd" clip-rule="evenodd" d="M29.4032 18.4058L28.2645 18.8939V25.9595H28.2645V33.0138H36.8922L36.108 42.2367L28.2645 44.423V51.7731L42.7125 47.7594L44.6151 25.9595H28.2646L45.2565 18.4058L45.8633 11.3516H28.2645V18.3174V18.4058H29.4032Z" fill="#7B4AE2" fill-opacity="0.5"/>
</g>
</svg>
