<svg width="64" height="64" viewBox="0 0 64 64" fill="none" xmlns="http://www.w3.org/2000/svg">
<g id="Figma" clip-path="url(#clip0_21_3162)">
<path id="Union" fill-rule="evenodd" clip-rule="evenodd" d="M21.4167 0C15.5287 0 10.75 4.77867 10.75 10.6667C10.75 16.5547 15.5287 21.3333 21.4167 21.3333C15.5287 21.3333 10.75 26.112 10.75 32C10.75 37.888 15.5287 42.6667 21.4167 42.6667C15.5287 42.6667 10.75 47.4453 10.75 53.3333C10.75 59.2213 15.5287 64 21.4167 64C27.3047 64 32.0833 59.2213 32.0833 53.3333L32.0833 32C32.0833 37.888 36.862 42.6667 42.75 42.6667C48.638 42.6667 53.4167 37.888 53.4167 32C53.4167 26.112 48.638 21.3333 42.75 21.3333C48.638 21.3333 53.4167 16.5547 53.4167 10.6667C53.4167 4.77867 48.638 0 42.75 0H21.4167ZM42.75 21.3333H32.0833L32.0833 32C32.0833 26.112 36.862 21.3333 42.75 21.3333Z" fill="#7B4AE2" fill-opacity="0.5"/>
</g>
<defs>
<clipPath id="clip0_21_3162">
<rect width="64" height="64" fill="white"/>
</clipPath>
</defs>
</svg>
