<svg width="66" height="64" viewBox="0 0 66 64" fill="none" xmlns="http://www.w3.org/2000/svg">
<g id="Union">
<path d="M51.4517 50.7413C53.7576 49.766 56.5069 49.411 60.0544 49.4995C59.9546 48.8357 58.6869 48.0474 57.7582 47.4698C57.4465 47.276 57.1729 47.1058 56.9946 46.9722C55.5756 45.9523 54.0678 44.8877 52.5603 43.9569C52.0746 43.6601 51.3754 43.4125 50.7025 43.1743C50.2697 43.021 49.8477 42.8715 49.5005 42.7153C49.1458 42.5708 48.6626 42.4262 48.141 42.2701C46.9019 41.8994 45.4457 41.4637 44.9775 40.8087C43.7717 39.2411 42.9303 37.3456 42.09 35.4527C42.0032 35.2572 41.9164 35.0617 41.8292 34.8666C41.3894 33.8611 40.9001 32.8359 40.408 31.8048C39.8584 30.6533 39.3054 29.4945 38.8139 28.3481C38.5998 27.8811 38.437 27.4396 38.2767 27.005C38.0718 26.4493 37.871 25.9049 37.5724 25.3328C34.3351 19.0805 29.5464 13.8478 23.7373 10.1674C21.8303 8.9701 19.7022 7.86124 17.3518 7.10764C16.634 6.8924 15.8389 6.85776 15.0359 6.82277C14.3506 6.79291 13.6596 6.7628 13.0062 6.61998H12.0749C11.5372 6.47062 11.0599 6.03949 10.6159 5.63844C10.4008 5.44415 10.1935 5.25691 9.99095 5.1122C8.61615 4.18111 7.24163 3.55991 5.60088 2.89505C5.02449 2.6291 3.38374 2.00819 2.80733 2.49613C2.45236 2.58487 2.27516 2.71784 2.18642 3.07253C1.83173 3.60471 2.14247 4.40282 2.3639 4.89048C2.80343 5.82817 3.35921 6.51418 3.92872 7.21714C4.22108 7.578 4.51705 7.94333 4.80278 8.34947C4.93925 8.54209 5.08153 8.73907 5.2262 8.93936C5.8807 9.84548 6.5841 10.8193 7.01993 11.7637C7.63494 13.0885 8.07331 14.4891 8.51008 15.8845C8.89201 17.1047 9.27272 18.3211 9.76925 19.4795C10.1682 20.4108 10.7891 21.4749 11.3655 22.3175C11.5463 22.5641 11.7819 22.7863 12.0205 23.0112C12.4255 23.393 12.8389 23.7827 13.0062 24.313C13.4375 25.0316 12.6458 27.0896 12.1647 28.34C12.0521 28.6326 11.9565 28.8811 11.8977 29.0577C10.7446 32.6936 10.9663 37.7489 12.2966 40.8971C12.3441 41.008 12.3913 41.1208 12.4389 41.2343C12.9234 42.3915 13.4435 43.6336 14.7355 43.9569C14.7756 43.9167 14.7795 43.9038 14.7881 43.8977C14.7986 43.8902 14.816 43.8925 14.9129 43.8681C14.9778 43.3584 15.033 42.8526 15.0875 42.3539C15.2935 40.4663 15.4884 38.6807 16.1545 37.1725C16.4719 36.3937 16.9954 35.765 17.5057 35.1522C17.78 34.8228 18.0504 34.4981 18.2829 34.1572C18.5643 34.326 18.6671 34.709 18.7728 35.1024C18.8336 35.3289 18.8953 35.5589 18.9926 35.7534C19.0344 35.8532 19.0765 35.9538 19.1189 36.0549C19.6596 37.3462 20.2414 38.7355 20.8993 40.0102C22.3625 42.8483 24.0035 45.5973 25.8657 48.0807C26.4864 48.9676 27.3735 49.9432 28.1716 50.7413C28.293 50.8475 28.4195 50.9382 28.5442 51.0274C28.7838 51.199 29.0163 51.3656 29.1915 51.6282H29.2802V51.7614C28.4383 51.4526 27.7919 50.7887 27.1608 50.1405C26.7947 49.7645 26.4338 49.3938 26.0429 49.1008C24.0475 47.593 21.6531 45.3314 20.2783 43.1587C19.8453 42.2261 19.3874 41.3184 18.9231 40.3982C18.7693 40.0934 18.6149 39.7872 18.4604 39.4783C18.4604 39.4783 18.4606 39.4338 18.4604 39.3896C18.2909 39.6156 18.2655 39.8415 18.2348 40.1134C18.2174 40.2682 18.1983 40.438 18.1499 40.6311C17.9856 41.2634 17.9041 41.9208 17.8254 42.5562C17.6281 44.1492 17.448 45.6035 16.0215 46.174C13.7601 47.1054 12.0749 44.666 11.3655 43.5577C9.10411 39.8773 8.4832 33.6692 10.0794 28.6585C10.2029 28.2729 10.2888 27.8604 10.3745 27.449C10.5351 26.678 10.6948 25.9111 11.0995 25.3328C11.0106 24.7999 10.7043 24.5239 10.405 24.2541C10.2561 24.1198 10.1088 23.9871 9.99097 23.825C9.37006 22.9827 8.83817 22.0071 8.35022 21.076C7.64123 19.6919 7.08667 18.1021 6.54922 16.5613C6.38065 16.0781 6.21377 15.5996 6.04433 15.1339C5.89297 14.7448 5.79437 14.3555 5.69709 13.9715C5.59485 13.5678 5.49405 13.1698 5.33495 12.7838C4.91577 11.8755 4.22165 10.9674 3.57722 10.1244C3.40351 9.8971 3.23342 9.67457 3.07329 9.45804C2.90055 9.21013 2.67182 8.9228 2.41685 8.60251C1.16656 7.03187 -0.714766 4.6685 0.279744 2.27442C2.1422 -2.29286 8.66098 1.16556 11.188 2.76208C11.4407 2.92455 11.7081 3.16042 11.9842 3.40397C12.3865 3.75883 12.8073 4.12998 13.228 4.31409C13.7824 4.33635 14.3368 4.3696 14.8913 4.40285C15.4455 4.43609 15.9997 4.46932 16.5537 4.49157C16.7352 4.53405 16.9158 4.57585 17.0952 4.6174C18.9754 5.05281 20.7317 5.45953 22.2296 6.30952C29.8566 10.7883 34.8231 15.3556 39.3904 22.8939C40.0104 23.9084 40.4335 24.9768 40.8643 26.0647C41.1114 26.6886 41.361 27.3189 41.6517 27.9491C42.7603 30.521 44.0024 33.2255 45.2879 35.6647C45.4496 35.988 45.6007 36.3218 45.7522 36.6562C46.1409 37.5145 46.5316 38.3771 47.1062 39.0791C47.3126 39.3743 47.7747 39.5318 48.2175 39.6827C48.4399 39.7585 48.6575 39.8327 48.8354 39.9218C49.4089 40.2172 50.0301 40.4854 50.6563 40.7557C51.6278 41.1751 52.6112 41.5997 53.4472 42.1389C56.019 43.7352 58.5024 45.6416 60.7638 47.5931C61.2209 48.0021 61.5998 48.5024 61.9781 49.002C62.2972 49.4233 62.6159 49.8442 62.9809 50.2094V50.6083C62.2715 50.8301 61.5619 51.0518 60.8525 51.2293C60.0806 51.4277 59.3526 51.5054 58.6303 51.5826C57.9003 51.6606 57.1761 51.738 56.4182 51.9386C56.3226 51.966 56.2248 51.9942 56.125 52.023C55.2521 52.2748 54.2339 52.5687 53.3584 52.6483C53.4026 52.6925 53.4472 52.7368 53.4472 52.7368C53.8746 53.9534 55.6919 54.9993 57.1813 55.8565C57.7005 56.1553 58.1799 56.4312 58.5466 56.6834C60.2761 57.925 61.8723 59.4327 63.1584 61.1619C63.3795 61.383 63.6006 61.5931 63.8217 61.8031C64.0441 62.0144 64.2665 62.2256 64.4887 62.448C64.6389 62.6627 64.7371 62.9085 64.8338 63.1504C64.9368 63.408 65.0379 63.6611 65.1981 63.867V64C64.8101 63.8615 64.5434 63.5843 64.2789 63.3094C64.1201 63.1444 63.9621 62.9802 63.779 62.8472C63.3614 62.5624 62.9438 62.2532 62.5263 61.944C61.9684 61.5309 61.4106 61.1178 60.8525 60.763C59.9945 60.221 59.0674 59.7941 58.1358 59.3651C57.2378 58.9516 56.3356 58.5361 55.4868 58.0137C54.5115 57.3928 53.5801 56.6834 52.649 55.974C51.8064 55.3531 50.8756 54.1555 50.3431 53.2689C50.2089 53.0582 50.1245 52.8308 50.0432 52.6119C49.9364 52.3244 49.835 52.0514 49.6335 51.8499C49.6998 51.2199 50.3118 51.061 50.8944 50.9096C51.0909 50.8586 51.284 50.8084 51.4517 50.7413Z" fill="#7B4AE2" fill-opacity="0.5"/>
<path d="M13.006 11.1873C13.5382 11.0543 14.0701 10.9653 14.824 10.9653C14.9645 11.1059 15.1399 11.2256 15.317 11.3464C15.5869 11.5306 15.8607 11.7175 16.0213 11.9854C16.1198 12.1233 16.1833 12.2612 16.2467 12.3992C16.3261 12.5717 16.4055 12.7442 16.5535 12.9167C16.5535 13.9808 16.2433 14.6902 15.6221 15.1339C15.6221 15.1339 15.5779 15.1781 15.5336 15.2226C15.3564 14.8683 15.1904 14.514 15.0243 14.1597C14.8578 13.8044 14.6913 13.4492 14.5135 13.0939C14.3409 12.8523 14.1414 12.6307 13.9411 12.4084C13.6272 12.0597 13.3115 11.7091 13.0948 11.276H13.006V11.1873Z" fill="#7B4AE2" fill-opacity="0.5"/>
</g>
</svg>
