<svg width="64" height="64" viewBox="0 0 64 64" fill="none" xmlns="http://www.w3.org/2000/svg">
<g id="React">
<path id="Vector" d="M52.6208 21.9559C51.9569 21.7274 51.269 21.5112 50.5606 21.3067C50.677 20.8315 50.7839 20.3625 50.8789 19.9015C52.4385 12.3312 51.4188 6.23256 47.9368 4.22462C44.5981 2.29928 39.1378 4.30676 33.6232 9.10594C33.0929 9.56743 32.5612 10.056 32.0296 10.5681C31.6754 10.2293 31.3218 9.9019 30.9691 9.58873C25.1897 4.45713 19.3967 2.29461 15.9181 4.30835C12.5826 6.23928 11.5948 11.9726 12.9986 19.147C13.1342 19.84 13.2927 20.5476 13.4718 21.2672C12.652 21.4999 11.8605 21.748 11.1031 22.012C4.32733 24.3743 0 28.0767 0 31.917C0 35.8833 4.64539 39.8616 11.7029 42.2738C12.2599 42.4642 12.8378 42.6442 13.4333 42.8151C13.24 43.5933 13.0719 44.3558 12.9307 45.0996C11.5922 52.1495 12.6375 57.7474 15.9642 59.6661C19.4003 61.6476 25.1671 59.6109 30.7825 54.7023C31.2264 54.3143 31.6718 53.9028 32.118 53.4715C32.6964 54.0285 33.2738 54.5556 33.8482 55.05C39.2874 59.7306 44.6595 61.6206 47.9831 59.6965C51.4158 57.7093 52.5314 51.6959 51.083 44.3795C50.9724 43.8208 50.8437 43.2499 50.6991 42.6689C51.1041 42.5492 51.5017 42.4256 51.8894 42.2971C59.2263 39.8662 64 35.9363 64 31.917C64 28.0628 59.5331 24.3355 52.6208 21.9559ZM51.0295 39.7019C50.6796 39.8177 50.3205 39.9297 49.9546 40.0383C49.1446 37.4741 48.0514 34.7474 46.7137 31.9303C47.9903 29.1803 49.0412 26.4885 49.8285 23.941C50.4832 24.1304 51.1186 24.3302 51.7309 24.5411C57.6533 26.5799 61.2659 29.5943 61.2659 31.917C61.2659 34.3911 57.3644 37.6028 51.0295 39.7019ZM48.4009 44.9105C49.0414 48.1457 49.1329 51.0707 48.7086 53.3573C48.3275 55.4119 47.5609 56.7818 46.6131 57.3304C44.5962 58.4979 40.2829 56.9804 35.6313 52.9775C35.098 52.5186 34.5609 52.0286 34.0221 51.5101C35.8254 49.5378 37.6277 47.2449 39.3867 44.6985C42.4807 44.424 45.4037 43.9751 48.0545 43.3623C48.1851 43.889 48.301 44.4055 48.4009 44.9105ZM21.819 57.1287C19.8485 57.8246 18.279 57.8445 17.3303 57.2975C15.3115 56.1331 14.4723 51.6386 15.6171 45.6095C15.7482 44.919 15.9043 44.2098 16.0841 43.4848C18.7059 44.0645 21.6075 44.4817 24.7088 44.7331C26.4797 47.2249 28.3341 49.5152 30.2028 51.5207C29.7945 51.9148 29.3878 52.2901 28.9834 52.6437C26.5003 54.8142 24.012 56.3541 21.819 57.1287ZM12.5872 39.6867C9.46645 38.6201 6.88926 37.2338 5.12272 35.7211C3.53537 34.3617 2.73395 33.0121 2.73395 31.917C2.73395 29.5866 6.20836 26.6141 12.0031 24.5937C12.7062 24.3486 13.4422 24.1175 14.2061 23.9005C15.0069 26.5056 16.0575 29.2293 17.3253 31.9835C16.0411 34.7786 14.9756 37.5457 14.1669 40.1814C13.6223 40.0249 13.0948 39.8601 12.5872 39.6867ZM15.6818 18.622C14.479 12.4751 15.2778 7.83814 17.2879 6.67457C19.429 5.43501 24.1636 7.20236 29.1537 11.6332C29.4727 11.9164 29.7929 12.2129 30.1141 12.5195C28.2546 14.5162 26.4172 16.7893 24.662 19.2664C21.652 19.5454 18.7708 19.9935 16.1217 20.5937C15.9552 19.9237 15.8076 19.2655 15.6818 18.622ZM43.2885 25.4388C42.6552 24.3449 42.0051 23.2769 41.3423 22.2381C43.3843 22.4962 45.3407 22.8389 47.178 23.2582C46.6264 25.026 45.9389 26.8744 45.1296 28.7692C44.5491 27.667 43.9351 26.5557 43.2885 25.4388ZM32.0305 14.4735C33.2916 15.8397 34.5545 17.3651 35.7967 19.0201C34.545 18.961 33.2777 18.9302 32 18.9302C30.7344 18.9302 29.4765 18.9603 28.2325 19.0184C29.4759 17.3788 30.7497 15.8554 32.0305 14.4735ZM20.7005 25.4577C20.0679 26.5546 19.4653 27.6598 18.8938 28.7671C18.0977 26.8789 17.4165 25.0222 16.8601 23.2293C18.6862 22.8207 20.6334 22.4865 22.6624 22.2333C21.9903 23.2817 21.3348 24.3576 20.7005 25.4574V25.4577ZM22.7208 41.7957C20.6245 41.5618 18.648 41.2449 16.8224 40.8476C17.3877 39.0227 18.0839 37.1263 18.8969 35.1974C19.4698 36.3039 20.0748 37.4096 20.7113 38.5089H20.7114C21.3597 39.6289 22.0314 40.7259 22.7208 41.7957ZM32.1062 49.5533C30.8103 48.1551 29.5178 46.6086 28.2555 44.945C29.4809 44.9931 30.7303 45.0177 32 45.0177C33.3045 45.0177 34.5941 44.9883 35.8633 44.9318C34.6171 46.6253 33.3587 48.1743 32.1062 49.5533ZM45.1557 35.0991C46.0111 37.0488 46.7323 38.9353 47.3048 40.7291C45.4492 41.1524 43.4457 41.4934 41.3348 41.7467C41.9991 40.6939 42.655 39.6076 43.2994 38.4901C43.9514 37.3596 44.5704 36.2274 45.1557 35.0991ZM40.9311 37.1242C39.9307 38.8589 38.9036 40.5148 37.8609 42.0779C35.9618 42.2137 33.9997 42.2836 32 42.2836C30.0084 42.2836 28.071 42.2218 26.2055 42.1007C25.1208 40.5171 24.0713 38.8563 23.0773 37.1392H23.0775C22.0861 35.4267 21.1736 33.6998 20.3468 31.9826C21.1734 30.2614 22.0835 28.5326 23.0692 26.8232L23.069 26.8236C24.0573 25.1096 25.0975 23.4569 26.1722 21.8832C28.0756 21.7393 30.0274 21.6643 31.9999 21.6643H32C33.9814 21.6643 35.9357 21.7399 37.8385 21.8851C38.8968 23.4472 39.9299 25.0946 40.9221 26.8088C41.9257 28.5421 42.8475 30.2595 43.6812 31.9438C42.85 33.657 41.9302 35.3916 40.9311 37.1242ZM46.5712 6.59323C48.7143 7.82914 49.5478 12.8136 48.2012 19.3497C48.1153 19.7667 48.0186 20.1915 47.9136 20.622C45.2584 20.0094 42.3751 19.5535 39.3563 19.2703C37.5978 16.766 35.7754 14.4893 33.9462 12.5183C34.438 12.0452 34.9291 11.5941 35.4181 11.1683C40.1431 7.05643 44.5591 5.43296 46.5712 6.59323ZM32 26.202C35.1562 26.202 37.715 28.7606 37.715 31.917C37.715 35.0732 35.1562 37.632 32 37.632C28.8438 37.632 26.285 35.0732 26.285 31.917C26.285 28.7606 28.8438 26.202 32 26.202Z" fill="#7B4AE2" fill-opacity="0.5"/>
</g>
</svg>
