<svg width="56" height="64" viewBox="0 0 56 64" fill="none" xmlns="http://www.w3.org/2000/svg">
<path id="Shape" fill-rule="evenodd" clip-rule="evenodd" d="M17.2091 39.1625C16.1919 39.7987 14.6593 40.8292 13.4737 41.9501C11.5273 43.7882 11.12 46.338 12.1468 46.9337C13.0966 47.4842 15.3141 46.8291 16.9011 45.0981C18.5667 43.2807 19.2535 40.9769 18.5441 38.3615C18.4608 38.4111 18.379 38.461 18.2987 38.5074L18.3004 38.5109L18.1928 38.5719C17.7787 38.8191 17.4403 39.023 17.2091 39.1625ZM45.7934 38.3374C45.2172 39.5895 45.1883 39.9925 45.3633 40.1178C46.1994 39.8175 47.5826 39.0936 47.5935 37.154C47.5953 36.8635 47.5312 36.5518 47.4284 36.226C46.5345 37.0175 46.0194 37.8461 45.7934 38.3374ZM54.7644 34.5515C52.5309 34.2912 50.7881 34.6044 49.4356 35.1679C49.6861 35.8198 49.8786 36.4988 49.9057 37.1828C49.9685 38.6841 48.9351 39.7952 47.8582 40.5884C47.2293 41.0508 46.5601 41.359 45.9984 41.5452C45.5493 41.7346 44.9523 41.9304 44.5286 41.844C43.5945 41.6541 43.0973 40.8244 43.7328 38.9941C44.076 38.0036 45.0661 36.4958 46.6643 35.197C46.3 34.4472 45.894 33.6831 45.6871 32.9811C45.2793 31.5973 45.1562 30.7608 45.1562 30.7608C45.1562 30.7608 43.8389 33.4919 42.1394 35.9756C42.0414 36.1199 41.9436 36.2615 41.8456 36.4026C42.1794 37.1783 42.4424 37.9986 42.478 38.8257C42.5406 40.3267 41.8907 41.4618 40.8122 42.2533C40.2284 42.6838 39.6056 42.981 39.0712 43.1703C38.7295 43.3195 38.0346 43.5649 37.0462 43.631C36.5057 43.6679 35.9857 43.6345 35.6955 43.4144C35.2958 43.1125 35.2477 42.74 35.4546 42.231C35.6296 41.7989 36.9388 40.3044 38.0365 38.9959C38.3397 38.6345 38.6285 38.2652 38.8868 37.9233L38.8805 37.9087C38.8805 37.9089 39.0793 37.6521 39.402 37.2041C39.0008 36.3402 38.4922 35.4409 38.2531 34.6254C37.8453 33.2416 37.722 32.4049 37.722 32.4049C37.722 32.4049 36.3867 35.8281 34.9957 38.5608C33.9192 40.6772 33.2002 41.9597 32.8762 42.5217L32.8729 42.5442C32.8729 42.5442 32.8246 42.6262 32.7412 42.7546L32.6789 42.8588L32.6771 42.8491C32.316 43.3825 31.5057 44.4274 30.7003 44.4274C28.4892 44.4274 29.3009 39.9367 29.3009 39.9367C29.3009 39.9367 28.6545 41.6001 27.9259 43.0274C27.3324 44.1914 26.7917 45.1775 25.6091 45.1775C25.2689 45.1775 24.7297 45.1677 24.2819 44.742C23.2663 43.7771 22.4897 41.3269 22.642 39.4292C22.7719 37.8157 23.0206 36.6981 23.3608 35.7656C22.7542 36.0961 22.0531 36.4881 21.3391 36.9072L20.2414 37.5541L20.2768 37.6184C21.1849 39.375 21.4272 43.2234 19.4471 46.1776C17.4672 49.1334 13.7815 50.9317 10.1905 49.9331C9.03176 49.6103 7.28132 47.2132 8.79114 43.872C10.1229 40.9257 15.4453 38.1401 16.8479 37.4449L17.2329 37.2329C14.4364 34.786 7.45304 31.4851 6.47435 26.4146C6.19829 24.9873 6.86745 21.5739 11.0585 17.65C14.5836 14.3506 19.4874 11.8233 24.0173 10.2129C31.6276 7.50762 39.6684 9.1034 40.9054 13.9555C42.1217 18.7273 37.9821 24.4352 32.6804 26.4871C27.9469 28.3189 24.0332 28.0284 22.4254 27.5003C20.5977 26.8998 19.5259 25.6939 19.2645 25.0131C19.1617 24.7467 18.9849 24.2989 19.2645 24.1447C19.436 24.05 19.5049 24.0725 19.9638 24.5798C20.4004 25.0615 22.1557 26.3541 25.4901 25.9798C34.2401 24.9989 39.5109 18.196 37.8453 14.5352C36.679 11.9728 29.9349 10.8167 21.5091 15.0184C11.2236 20.1466 10.6654 24.3741 10.5772 25.9798C10.3364 30.3966 16.0246 32.7199 19.1024 36.0047L19.2209 36.1348C19.7969 35.817 20.4052 35.4814 21.002 35.1539C22.5538 34.3013 24.0173 33.5015 24.6991 33.129C25.7824 31.5544 27.9804 29.8169 29.5674 29.8169C32.1042 29.8169 31.233 33.4632 31.233 33.4632C31.233 33.4632 31.2844 33.2963 31.3533 33.2948C31.4255 33.2928 31.7048 32.8144 32.4879 33.1001C33.2934 33.3956 33.1103 33.9609 33.1153 34.0186C33.1249 34.1308 32.1637 37.3725 31.7643 39.4517C31.5731 40.444 31.6838 41.1667 31.7402 41.1667C31.8188 41.1667 31.9793 40.9145 32.1285 40.6433L32.1252 40.6352C32.1252 40.6352 32.2375 40.4298 32.4254 40.0605L32.4623 39.9833L32.4639 39.9868C32.6855 39.5532 32.9965 38.9158 33.3559 38.1259C34.0603 36.5734 36.7479 30.5797 36.9758 29.9166C37.2035 29.2536 37.3223 28.568 37.4347 28.274C37.5454 27.9802 38.4955 27.7586 39.6056 27.7667C40.716 27.7748 40.8287 28.2484 40.8363 28.3464C40.8444 28.4442 40.3085 29.7593 40.1849 30.6888C40.063 31.6185 40.1803 32.0823 40.2813 32.8628C40.3472 33.3731 40.6663 34.0204 41.0437 34.7541C42.1926 32.8754 44.214 29.2822 44.4083 28.2756C44.5413 27.5869 44.7548 26.927 44.8672 26.633C44.9794 26.3392 45.9279 26.1178 47.0381 26.1257C48.1485 26.1338 48.2607 26.6074 48.2688 26.7054C48.2769 26.8034 47.7392 28.1183 47.6174 29.048C47.4953 29.9759 47.6128 30.4416 47.7136 31.2219C47.8004 31.8897 48.3169 32.7873 48.829 33.8082C50.2264 33.1193 51.8712 32.6571 53.7968 32.6475C54.5942 32.6429 55.5201 32.723 55.9983 32.8722V17.5117C55.9983 16.428 55.4429 15.4294 54.5045 14.8885L29.4473 0.405891C28.5104 -0.135297 27.363 -0.135297 26.4259 0.405891L1.43785 14.8815C0.500719 15.4227 0 16.423 0 17.5049V46.4826C0 47.5645 0.503782 48.5649 1.43938 49.1058L26.4677 63.5928C27.4046 64.1357 28.5408 64.1357 29.4777 63.5928L54.5174 49.1058C55.4543 48.5631 56.0001 47.5643 56.0001 46.4826V34.7716C55.6822 34.6779 55.217 34.6042 54.7644 34.5515ZM27.8073 33.034C27.2699 33.636 26.3537 35.1885 25.9252 36.4879C25.0732 39.0678 25.4422 41.6898 26.0455 41.8473C26.7499 42.0317 27.9053 38.5831 28.4585 37.2343C28.8053 36.3897 30.1532 32.641 29.8579 32.14C29.6273 31.7482 28.6723 32.0645 27.8073 33.034ZM37.5555 41.7298C37.5555 41.7298 37.3855 41.8906 37.459 41.9354C37.5586 41.9949 37.7736 41.9177 38.0079 41.7956C38.6707 41.3785 40.158 40.3379 40.1612 38.7981C40.1612 38.7533 40.1595 38.71 40.1564 38.6634C39.8115 39.1162 39.4936 39.5191 39.2193 39.861C38.7507 40.4438 37.5555 41.7298 37.5555 41.7298Z" fill="#7B4AE2" fill-opacity="0.5"/>
</svg>
