<svg width="64" height="64" viewBox="0 0 64 64" fill="none" xmlns="http://www.w3.org/2000/svg">
<g id="Group">
<path id="Vector" d="M32 0C14.3269 0 0 14.3269 0 32C0 49.6732 14.3269 64 32 64C49.6732 64 64 49.6732 64 32C64 14.3269 49.6732 0 32 0ZM32 3.25424C47.8758 3.25424 60.7458 16.1242 60.7458 32C60.7458 47.8758 47.8758 60.7458 32 60.7458C16.1242 60.7458 3.25424 47.8758 3.25424 32C3.25424 16.1242 16.1242 3.25424 32 3.25424Z" fill="#7B4AE2" fill-opacity="0.5"/>
<path id="Vector_2" d="M32.3614 9.22021C44.9424 9.22021 55.1412 19.419 55.1412 31.9999C55.1412 44.5807 44.9424 54.7795 32.3614 54.7795C19.7806 54.7795 9.58179 44.5807 9.58179 31.9999C9.58179 28.9253 10.1909 25.9929 11.2952 23.3167C12.9075 25.5123 15.5075 26.9377 18.4405 26.9377C23.3332 26.9377 27.2992 22.9715 27.2992 18.079C27.2992 15.146 25.874 12.5459 23.6782 10.9336C26.3544 9.82937 29.2868 9.22021 32.3614 9.22021Z" fill="#7B4AE2" fill-opacity="0.5"/>
</g>
</svg>
