<svg width="64" height="64" viewBox="0 0 64 64" fill="none" xmlns="http://www.w3.org/2000/svg">
<g id="TypeScript" clip-path="url(#clip0_21_3160)">
<path id="Subtract" fill-rule="evenodd" clip-rule="evenodd" d="M59 0H5C2.23858 0 0 2.23858 0 5V59C0 61.7614 2.23858 64 5 64H59C61.7614 64 64 61.7614 64 59V5C64 2.23858 61.7614 0 59 0ZM37.6295 57.0238V50.1188C38.882 51.169 40.2425 51.9565 41.7113 52.4815C43.1797 53.0067 44.6625 53.2692 46.1598 53.2692C47.038 53.2692 47.8048 53.19 48.4598 53.0317C49.1147 52.8735 49.662 52.6542 50.101 52.3737C50.54 52.0933 50.8677 51.7622 51.0835 51.3812C51.2995 51 51.4075 50.5863 51.4075 50.1405C51.4075 49.5362 51.2348 48.9967 50.8893 48.522C50.5438 48.0472 50.0723 47.6085 49.4748 47.2057C48.8773 46.803 48.1683 46.4147 47.3475 46.0407C46.527 45.6665 45.6415 45.2855 44.6912 44.897C42.2725 43.89 40.4695 42.66 39.2817 41.2072C38.0938 39.7542 37.5 37.9992 37.5 35.9422C37.5 34.331 37.824 32.9465 38.4717 31.7885C39.1197 30.6305 40.0015 29.6775 41.1172 28.9293C42.233 28.1813 43.5253 27.631 44.9938 27.2787C46.4622 26.9262 48.017 26.75 49.6582 26.75C51.2707 26.75 52.6997 26.847 53.945 27.0413C55.1903 27.2355 56.3385 27.534 57.3895 27.9368V34.3885C56.8713 34.029 56.306 33.7125 55.6942 33.4393C55.0822 33.1658 54.4525 32.9392 53.8047 32.7595C53.1567 32.5795 52.5125 32.4465 51.8717 32.3602C51.2313 32.274 50.623 32.2308 50.047 32.2308C49.2552 32.2308 48.5353 32.3062 47.8875 32.4572C47.2395 32.6085 46.6925 32.8205 46.2463 33.094C45.8 33.3673 45.4543 33.6945 45.2095 34.0757C44.9647 34.457 44.8425 34.8848 44.8425 35.3595C44.8425 35.8775 44.9793 36.3413 45.2528 36.7513C45.5262 37.1613 45.915 37.5498 46.419 37.9165C46.9227 38.2835 47.5348 38.643 48.2545 38.9955C48.9745 39.348 49.7878 39.711 50.6948 40.0853C51.933 40.603 53.0452 41.1532 54.0315 41.7357C55.0175 42.3185 55.8635 42.9765 56.5687 43.7103C57.2743 44.4438 57.8143 45.2817 58.1885 46.224C58.5627 47.1662 58.75 48.2633 58.75 49.5148C58.75 51.241 58.4225 52.6903 57.7675 53.8625C57.1123 55.035 56.2233 55.9845 55.1003 56.711C53.9775 57.4372 52.6708 57.9587 51.1808 58.2752C49.6908 58.5918 48.1177 58.75 46.4622 58.75C44.7632 58.75 43.1472 58.6063 41.614 58.3185C40.0807 58.0308 38.7525 57.5993 37.6295 57.0238ZM35 32.9355H26.1205V58.25H19.0862V32.9355H10.25V27.25H35V32.9355Z" fill="#7B4AE2" fill-opacity="0.5"/>
</g>
<defs>
<clipPath id="clip0_21_3160">
<rect width="64" height="64" fill="white"/>
</clipPath>
</defs>
</svg>
