<svg width="39" height="39" viewBox="0 0 39 39" fill="none" xmlns="http://www.w3.org/2000/svg">
<path d="M24.7972 18.1427C24.5285 18.1416 24.2626 18.1966 24.0164 18.3042C23.7702 18.4119 23.5492 18.5697 23.3676 18.7677C23.186 18.9657 23.0477 19.1994 22.9616 19.4539C22.8755 19.7085 22.8436 19.9782 22.8678 20.2457H26.8424C26.8681 19.9681 26.8333 19.6882 26.7404 19.4253C26.6475 19.1625 26.4987 18.9228 26.3044 18.723C26.11 18.5231 25.8746 18.3677 25.6144 18.2675C25.3542 18.1673 25.0754 18.1247 24.7972 18.1427Z" fill="white" fill-opacity="0.5"/>
<path d="M14.6292 20.2842H12.256V24.0273H14.1855C16.1149 24.0273 16.9639 23.3906 16.9639 22.0978C16.9639 20.8051 16.0763 20.2842 14.6292 20.2842Z" fill="white" fill-opacity="0.5"/>
<path d="M16.3078 16.85C16.3078 15.8274 15.6325 15.21 14.4749 15.21H12.256V18.5672H13.8961C15.6133 18.5672 16.3078 17.9498 16.3078 16.85Z" fill="white" fill-opacity="0.5"/>
<path d="M19.4721 0.411133C15.6561 0.411133 11.9257 1.54273 8.75278 3.66281C5.57984 5.7829 3.10684 8.79626 1.6465 12.3218C0.186155 15.8474 -0.195937 19.7269 0.548539 23.4696C1.29302 27.2123 3.13062 30.6502 5.82898 33.3486C8.52734 36.047 11.9653 37.8846 15.708 38.6291C19.4507 39.3735 23.3302 38.9914 26.8557 37.5311C30.3813 36.0708 33.3947 33.5978 35.5148 30.4248C37.6349 27.2519 38.7665 23.5215 38.7665 19.7055C38.7665 17.1717 38.2674 14.6627 37.2978 12.3218C36.3281 9.98094 34.9069 7.85395 33.1153 6.06231C31.3236 4.27067 29.1966 2.84946 26.8557 1.87983C24.5149 0.910195 22.0059 0.411133 19.4721 0.411133ZM15.0344 25.8796H9.82497V13.3383H15.0344C17.2919 13.3383 18.7775 14.5153 18.7775 16.4254C18.8042 17.0671 18.6013 17.6973 18.2052 18.203C17.8092 18.7086 17.246 19.0566 16.6166 19.1845C17.0154 19.1938 17.4082 19.2843 17.7709 19.4506C18.1336 19.6169 18.4585 19.8554 18.7259 20.1516C18.9932 20.4478 19.1972 20.7955 19.3255 21.1733C19.4539 21.5511 19.5037 21.951 19.4721 22.3488C19.4721 24.5869 17.5427 25.8796 15.0344 25.8796ZM21.8839 14.303H27.6722V15.2678H21.8839V14.303ZM29.1193 21.7314H22.7522V22.0015C22.719 22.2947 22.749 22.5916 22.8403 22.8722C22.9315 23.1528 23.0819 23.4105 23.2812 23.6281C23.4805 23.8457 23.7241 24.018 23.9956 24.1335C24.2672 24.249 24.5603 24.3049 24.8552 24.2975C25.2694 24.3619 25.6928 24.2742 26.0475 24.0508C26.4021 23.8274 26.6639 23.4833 26.7847 23.082H29.1193C28.9114 24.0081 28.3694 24.8252 27.597 25.3769C26.8246 25.9286 25.876 26.1763 24.9324 26.0726C24.3294 26.1335 23.7203 26.0615 23.1481 25.8617C22.5759 25.6619 22.0544 25.3391 21.6203 24.9161C21.1863 24.4931 20.8502 23.9801 20.6357 23.4132C20.4213 22.8463 20.3336 22.2393 20.379 21.6349V20.7859C20.338 20.2003 20.4242 19.6127 20.6316 19.0635C20.839 18.5143 21.1627 18.0164 21.5806 17.6041C21.9984 17.1917 22.5005 16.8746 23.0524 16.6745C23.6044 16.4744 24.193 16.396 24.7781 16.4447C25.3612 16.4073 25.9455 16.4953 26.4918 16.7027C27.0381 16.9102 27.5335 17.2322 27.9449 17.6472C28.3562 18.0622 28.6739 18.5605 28.8764 19.1086C29.079 19.6567 29.1618 20.2418 29.1193 20.8245V21.7314Z" fill="white" fill-opacity="0.5"/>
</svg>
