<svg width="37" height="36" viewBox="0 0 37 36" fill="none" xmlns="http://www.w3.org/2000/svg">
<g id="Figma" clip-path="url(#clip0_21_4117)">
<path id="Union" fill-rule="evenodd" clip-rule="evenodd" d="M12.8885 0.0744781C9.59394 0.0744781 6.9201 2.74831 6.9201 6.04285C6.9201 9.33739 9.59394 12.0112 12.8885 12.0112C9.59394 12.0112 6.9201 14.6851 6.9201 17.9796C6.9201 21.2741 9.59394 23.948 12.8885 23.948C9.59394 23.948 6.9201 26.6218 6.9201 29.9163C6.9201 33.2109 9.59394 35.8847 12.8885 35.8847C16.183 35.8847 18.8568 33.2109 18.8568 29.9163L18.8568 17.9796C18.8568 21.2741 21.5307 23.948 24.8252 23.948C28.1198 23.948 30.7936 21.2741 30.7936 17.9796C30.7936 14.6851 28.1198 12.0112 24.8252 12.0112C28.1198 12.0112 30.7936 9.33739 30.7936 6.04285C30.7936 2.74831 28.1198 0.0744781 24.8252 0.0744781H12.8885ZM24.8252 12.0112H18.8568L18.8568 17.9796C18.8568 14.6851 21.5307 12.0112 24.8252 12.0112Z" fill="#7B4AE2" fill-opacity="0.5"/>
</g>
<defs>
<clipPath id="clip0_21_4117">
<rect width="35.8102" height="35.8102" fill="white" transform="translate(0.905121 0.0744781)"/>
</clipPath>
</defs>
</svg>
