<svg width="38" height="38" viewBox="0 0 38 38" fill="none" xmlns="http://www.w3.org/2000/svg">
<g id="linkedin" clip-path="url(#clip0_21_3379)">
<g id="Group">
<path id="Vector" d="M18.9999 0C29.4939 0 38 8.50725 38 19.0001C38 29.4929 29.4939 38 18.9999 38C8.50594 38 0 29.4928 0 19.0001C0 8.50738 8.50607 0 18.9999 0Z" fill="white" fill-opacity="0.5"/>
<path id="Vector_2" d="M10.7065 26.1059H14.2643V14.2475H10.7065V26.1059ZM24.567 13.8368C22.8404 13.8368 21.2954 14.4673 20.1995 15.8591V14.2085H16.6286V26.1061H20.1995V19.6722C20.1995 18.3125 21.4452 16.986 23.0055 16.986C24.5659 16.986 24.9507 18.3125 24.9507 19.6389V26.1049H28.5084V19.3741C28.5083 14.6989 26.2949 13.8368 24.567 13.8368ZM12.4687 13.0625C13.452 13.0625 14.25 12.2644 14.25 11.2812C14.25 10.2979 13.452 9.5 12.4687 9.5C11.4855 9.5 10.6874 10.298 10.6874 11.2813C10.6874 12.2646 11.4855 13.0625 12.4687 13.0625Z" fill="#090E16"/>
</g>
</g>
<defs>
<clipPath id="clip0_21_3379">
<rect width="38" height="38" fill="white"/>
</clipPath>
</defs>
</svg>
