<svg width="45" height="40" viewBox="0 0 45 40" fill="none" xmlns="http://www.w3.org/2000/svg">
<g id="Group 67">
<circle id="Ellipse 4" cx="32.5" cy="20.5" r="12.5" fill="#7B4AE2" fill-opacity="0.2"/>
<g id="Palette">
<path id="Vector" d="M34.6251 23.3438C34.8843 22.206 35.0101 21.042 35.0001 19.8751C34.9376 11.6094 28.0938 4.92194 19.8438 5.00007C16.3193 5.03723 12.9205 6.31434 10.2437 8.60733C7.56683 10.9003 5.78294 14.0627 5.205 17.5397C4.62706 21.0166 5.29198 24.5861 7.08311 27.6217C8.87423 30.6574 11.6771 32.9654 15.0001 34.1407C15.5653 34.3443 16.1714 34.4086 16.7668 34.328C17.3621 34.2473 17.9293 34.0243 18.42 33.6777C18.9108 33.3311 19.3107 32.8712 19.5858 32.337C19.8608 31.8029 20.003 31.2102 20.0001 30.6094V30.0001C19.998 29.507 20.0936 29.0185 20.2813 28.5626C20.469 28.1067 20.7452 27.6924 21.0938 27.3438C21.4424 26.9952 21.8567 26.719 22.3126 26.5313C22.7685 26.3436 23.257 26.248 23.7501 26.2501H30.9688C31.8171 26.2506 32.6406 25.9635 33.3046 25.4357C33.9687 24.9078 34.4342 24.1704 34.6251 23.3438V23.3438Z" stroke="#7B4AE2" stroke-linecap="round" stroke-linejoin="round"/>
<path id="Vector_2" d="M20 13.125C20.6904 13.125 21.25 12.5654 21.25 11.875C21.25 11.1846 20.6904 10.625 20 10.625C19.3096 10.625 18.75 11.1846 18.75 11.875C18.75 12.5654 19.3096 13.125 20 13.125Z" fill="#7B4AE2"/>
<path id="Vector_3" d="M12.9688 17.1875C13.6591 17.1875 14.2188 16.6279 14.2188 15.9375C14.2188 15.2471 13.6591 14.6875 12.9688 14.6875C12.2784 14.6875 11.7188 15.2471 11.7188 15.9375C11.7188 16.6279 12.2784 17.1875 12.9688 17.1875Z" fill="#7B4AE2"/>
<path id="Vector_4" d="M12.9688 25.3125C13.6591 25.3125 14.2188 24.7529 14.2188 24.0625C14.2188 23.3721 13.6591 22.8125 12.9688 22.8125C12.2784 22.8125 11.7188 23.3721 11.7188 24.0625C11.7188 24.7529 12.2784 25.3125 12.9688 25.3125Z" fill="#7B4AE2"/>
<path id="Vector_5" d="M27.0312 17.1875C27.7216 17.1875 28.2812 16.6279 28.2812 15.9375C28.2812 15.2471 27.7216 14.6875 27.0312 14.6875C26.3409 14.6875 25.7812 15.2471 25.7812 15.9375C25.7812 16.6279 26.3409 17.1875 27.0312 17.1875Z" fill="#7B4AE2"/>
</g>
</g>
</svg>
