<svg width="40" height="40" viewBox="0 0 40 40" fill="none" xmlns="http://www.w3.org/2000/svg">
<g id="PaperPlaneTilt">
<path id="Vector" d="M32.8594 5.60823L3.73437 13.8114C3.48644 13.8791 3.26544 14.0217 3.10146 14.2196C2.93748 14.4175 2.8385 14.6612 2.81801 14.9174C2.79751 15.1736 2.85649 15.4299 2.98692 15.6514C3.11734 15.8729 3.31287 16.0488 3.54687 16.1551L16.9219 22.4832C17.1839 22.6046 17.3943 22.815 17.5156 23.077L23.8437 36.452C23.9501 36.686 24.126 36.8815 24.3474 37.0119C24.5689 37.1424 24.8252 37.2013 25.0814 37.1808C25.3376 37.1603 25.5813 37.0614 25.7792 36.8974C25.9771 36.7334 26.1197 36.5124 26.1875 36.2645L34.3906 7.13948C34.4528 6.92694 34.4566 6.7016 34.4017 6.48707C34.3469 6.27253 34.2353 6.07671 34.0787 5.92013C33.9221 5.76355 33.7263 5.65198 33.5118 5.5971C33.2973 5.54222 33.0719 5.54607 32.8594 5.60823V5.60823Z" stroke="#7B4AE2" stroke-opacity="0.5" stroke-linecap="round" stroke-linejoin="round"/>
<path id="Vector_2" d="M17.3281 22.6709L24.3906 15.6084" stroke="#7B4AE2" stroke-opacity="0.5" stroke-linecap="round" stroke-linejoin="round"/>
</g>
</svg>
