<svg width="245" height="243" viewBox="0 0 245 243" fill="none" xmlns="http://www.w3.org/2000/svg">
<g id="Play">
<path id="Vector" d="M51.6789 27.4596L19.0766 7.52208C18.8021 7.35278 18.4875 7.25977 18.1651 7.25264C17.8427 7.24551 17.5242 7.32452 17.2426 7.48151C16.9609 7.63851 16.7262 7.86781 16.5627 8.14575C16.3992 8.4237 16.3129 8.74023 16.3125 9.0627V48.9377C16.3129 49.2602 16.3992 49.5767 16.5627 49.8546C16.7262 50.1326 16.9609 50.3619 17.2426 50.5189C17.5242 50.6759 17.8427 50.7549 18.1651 50.7478C18.4875 50.7406 18.8021 50.6476 19.0766 50.4783L51.6789 30.5408C51.9466 30.3825 52.1685 30.1572 52.3226 29.887C52.4767 29.6169 52.5577 29.3112 52.5577 29.0002C52.5577 28.6892 52.4767 28.3835 52.3226 28.1134C52.1685 27.8432 51.9466 27.6179 51.6789 27.4596Z" fill="white" fill-opacity="0.2"/>
<path id="Vector_2" d="M243.718 231.279L228.727 222.111C228.601 222.034 228.456 221.991 228.308 221.988C228.16 221.984 228.014 222.021 227.884 222.093C227.754 222.165 227.647 222.27 227.571 222.398C227.496 222.526 227.456 222.672 227.456 222.82V241.155C227.456 241.303 227.496 241.449 227.571 241.576C227.647 241.704 227.754 241.81 227.884 241.882C228.014 241.954 228.16 241.99 228.308 241.987C228.456 241.984 228.601 241.941 228.727 241.863L243.718 232.696C243.841 232.623 243.943 232.519 244.014 232.395C244.085 232.271 244.122 232.13 244.122 231.987C244.122 231.844 244.085 231.704 244.014 231.58C243.943 231.455 243.841 231.352 243.718 231.279V231.279Z" stroke="#7B4AE2" stroke-opacity="0.5" stroke-linecap="round" stroke-linejoin="round"/>
</g>
</svg>
