<svg width="172" height="173" viewBox="0 0 172 173" fill="none" xmlns="http://www.w3.org/2000/svg">
<rect width="172" height="173" fill="#1E1E1E"/>
<g id="Desktop" clip-path="url(#clip0_0_1)">
<rect width="1920" height="8320" transform="translate(-640 -310)" fill="#090E16"/>
<g id="AvatarAndIcons">
<path id="Vector" d="M565.667 152.713C565.667 10.4075 450.231 -104.954 307.834 -104.954C165.436 -104.954 50 10.4075 50 152.713C50 295.018 165.436 410.379 307.834 410.379C450.231 410.379 565.667 295.018 565.667 152.713Z" fill="#7B4AE2" fill-opacity="0.2"/>
<g id="Icons">
<g id="Group 30">
<g id="Ellipse 4" filter="url(#filter0_d_0_1)">
<circle cx="85.8102" cy="82.7942" r="35.8102" fill="#090E16"/>
</g>
<path id="Vector_2" d="M99.2074 76.4958C98.7899 76.3521 98.3572 76.2161 97.9117 76.0875C97.9849 75.7887 98.0521 75.4938 98.1119 75.2038C99.0927 70.4429 98.4514 66.6076 96.2617 65.3448C94.1619 64.1339 90.728 65.3964 87.26 68.4146C86.9265 68.7048 86.592 69.0121 86.2577 69.3341C86.035 69.1211 85.8126 68.9152 85.5908 68.7182C81.9562 65.491 78.313 64.131 76.1254 65.3974C74.0277 66.6118 73.4065 70.2174 74.2893 74.7293C74.3746 75.1651 74.4742 75.6102 74.5869 76.0627C74.0713 76.209 73.5735 76.3651 73.0973 76.5311C68.836 78.0167 66.1146 80.3451 66.1146 82.7603C66.1146 85.2547 69.036 87.7566 73.4745 89.2736C73.8247 89.3933 74.1882 89.5065 74.5627 89.614C74.4411 90.1034 74.3354 90.583 74.2466 91.0507C73.4048 95.4843 74.0622 99.0048 76.1543 100.211C78.3153 101.458 81.942 100.177 85.4735 97.0898C85.7526 96.8457 86.0327 96.587 86.3133 96.3157C86.6771 96.666 87.0402 96.9975 87.4014 97.3084C90.8221 100.252 94.2006 101.441 96.2907 100.231C98.4496 98.9808 99.1511 95.199 98.2403 90.5979C98.1707 90.2464 98.0898 89.8874 97.9988 89.5221C98.2535 89.4468 98.5036 89.369 98.7474 89.2882C103.362 87.7594 106.364 85.288 106.364 82.7603C106.364 80.3364 103.554 77.9923 99.2074 76.4958ZM98.2066 87.6561C97.9865 87.729 97.7607 87.7994 97.5306 87.8677C97.0212 86.2551 96.3337 84.5403 95.4924 82.7687C96.2953 81.0392 96.9562 79.3464 97.4513 77.7442C97.863 77.8633 98.2626 77.989 98.6477 78.1216C102.372 79.4038 104.644 81.2996 104.644 82.7603C104.644 84.3162 102.191 86.336 98.2066 87.6561ZM96.5535 90.9318C96.9563 92.9664 97.0138 94.8059 96.747 96.2439C96.5073 97.536 96.0252 98.3975 95.4292 98.7426C94.1607 99.4768 91.4482 98.5224 88.5228 96.005C88.1874 95.7164 87.8496 95.4083 87.5108 95.0822C88.6449 93.8418 89.7783 92.3999 90.8846 90.7985C92.8303 90.6258 94.6686 90.3435 96.3357 89.9582C96.4178 90.2894 96.4907 90.6142 96.5535 90.9318ZM79.8364 98.6157C78.5971 99.0533 77.6101 99.0659 77.0135 98.7219C75.7439 97.9896 75.2161 95.163 75.936 91.3714C76.0185 90.9371 76.1166 90.4911 76.2298 90.0352C77.8785 90.3998 79.7034 90.6621 81.6538 90.8202C82.7675 92.3873 83.9337 93.8277 85.1089 95.0889C84.8521 95.3367 84.5963 95.5727 84.342 95.7951C82.7804 97.1601 81.2155 98.1286 79.8364 98.6157ZM74.0305 87.6466C72.068 86.9758 70.4472 86.104 69.3362 85.1526C68.338 84.2977 67.8339 83.449 67.8339 82.7603C67.8339 81.2947 70.019 79.4253 73.6632 78.1547C74.1054 78.0005 74.5683 77.8553 75.0487 77.7188C75.5523 79.3571 76.213 81.07 77.0103 82.8021C76.2027 84.5599 75.5326 86.3001 75.024 87.9577C74.6816 87.8592 74.3498 87.7556 74.0305 87.6466ZM75.9767 74.3991C75.2203 70.5334 75.7227 67.6173 76.9868 66.8855C78.3333 66.106 81.3109 67.2174 84.4491 70.004C84.6497 70.1821 84.8511 70.3685 85.0531 70.5614C83.8836 71.8171 82.7281 73.2466 81.6243 74.8044C79.7314 74.9799 77.9194 75.2617 76.2534 75.6391C76.1487 75.2178 76.0559 74.8038 75.9767 74.3991ZM93.3383 78.6862C92.9401 77.9983 92.5312 77.3266 92.1144 76.6733C93.3986 76.8356 94.629 77.0511 95.7844 77.3149C95.4375 78.4266 95.0052 79.589 94.4962 80.7806C94.1311 80.0875 93.745 79.3886 93.3383 78.6862ZM86.2583 71.7902C87.0514 72.6494 87.8456 73.6087 88.6268 74.6495C87.8396 74.6123 87.0427 74.593 86.2391 74.593C85.4432 74.593 84.6521 74.6119 83.8697 74.6485C84.6517 73.6173 85.4528 72.6593 86.2583 71.7902ZM79.1329 78.6981C78.7351 79.3879 78.3561 80.083 77.9968 80.7794C77.496 79.5919 77.0677 78.4242 76.7178 77.2967C77.8662 77.0397 79.0907 76.8295 80.3668 76.6703C79.9441 77.3296 79.5318 78.0062 79.1329 78.6979V78.6981ZM80.4035 88.9729C79.0852 88.8258 77.8422 88.6265 76.6941 88.3766C77.0496 87.229 77.4874 86.0364 77.9987 84.8233C78.359 85.5192 78.7395 86.2145 79.1397 86.9059H79.1398C79.5475 87.6102 79.9699 88.3001 80.4035 88.9729ZM86.3059 93.8516C85.491 92.9723 84.6781 91.9997 83.8842 90.9535C84.6549 90.9837 85.4406 90.9992 86.2391 90.9992C87.0595 90.9992 87.8705 90.9807 88.6687 90.9452C87.885 92.0102 87.0936 92.9843 86.3059 93.8516ZM94.5126 84.7615C95.0506 85.9876 95.5041 87.174 95.8642 88.3021C94.6972 88.5684 93.4372 88.7828 92.1097 88.9421C92.5275 88.28 92.9399 87.5968 93.3452 86.8941C93.7552 86.1831 94.1445 85.471 94.5126 84.7615ZM91.8558 86.0351C91.2267 87.126 90.5807 88.1674 89.925 89.1504C88.7306 89.2358 87.4967 89.2798 86.2391 89.2798C84.9866 89.2798 83.7682 89.2409 82.595 89.1647C81.9128 88.1688 81.2529 87.1243 80.6277 86.0445H80.6278C80.0043 84.9675 79.4305 83.8815 78.9105 82.8015C79.4303 81.7191 80.0027 80.6318 80.6226 79.5568L80.6225 79.5571C81.244 78.4792 81.8982 77.4398 82.5741 76.4501C83.7711 76.3596 84.9986 76.3124 86.239 76.3124H86.2391C87.4852 76.3124 88.7142 76.36 89.9109 76.4513C90.5764 77.4337 91.2262 78.4697 91.8502 79.5477C92.4813 80.6379 93.061 81.7179 93.5853 82.7771C93.0626 83.8545 92.4841 84.9454 91.8558 86.0351ZM95.4028 66.8344C96.7506 67.6116 97.2748 70.7463 96.4279 74.8568C96.3739 75.1191 96.3131 75.3862 96.247 75.657C94.5772 75.2717 92.7639 74.985 90.8654 74.8069C89.7595 73.2319 88.6134 71.8001 87.4631 70.5606C87.7723 70.2631 88.0812 69.9793 88.3888 69.7116C91.3602 67.1257 94.1374 66.1047 95.4028 66.8344ZM86.2391 79.1662C88.2241 79.1662 89.8332 80.7753 89.8332 82.7603C89.8332 84.7452 88.2241 86.3544 86.2391 86.3544C84.2542 86.3544 82.645 84.7452 82.645 82.7603C82.645 80.7753 84.2542 79.1662 86.2391 79.1662Z" fill="#7B4AE2" fill-opacity="0.5"/>
</g>
</g>
<g id="Group 33">
<g id="Ellipse 5" filter="url(#filter1_f_0_1)">
<circle cx="309.624" cy="148.148" r="255.148" fill="#7B4AE2" fill-opacity="0.2"/>
</g>
<g id="Group 32" filter="url(#filter2_i_0_1)">
<g id="_2667536657440">
<g id="Group">
<path id="Vector_3" fill-rule="evenodd" clip-rule="evenodd" d="M198.067 12.0981C285.781 -43.7511 397.996 -23.8906 435.909 12.9375C446.87 39.3139 447.645 64.7554 444.42 92.0647C451.825 86.7512 460.631 87.9674 467.569 92.9158C470.38 115.577 477.909 160.405 444.169 162.35C432.553 306.956 219.72 324.955 190.95 162.823C157.51 161.669 166.527 116.364 168.616 94.6076C176.639 88.5045 185.801 91.576 191.487 94.3067L198.067 12.0981Z" fill="#D08B5B"/>
<path id="Vector_4" fill-rule="evenodd" clip-rule="evenodd" d="M185.039 73.3386C185.499 74.6045 184.002 75.8704 179.511 78.1719C170.215 82.8148 169.4 83.7804 169.377 91.0533V91.4046C169.377 101.185 170.874 103.715 177.322 104.637C183.887 105.558 188.034 107.053 189.186 108.894C189.645 109.7 190.107 113.382 190.107 117.179C190.107 125.349 192.64 136.856 195.75 142.839C204.502 159.87 227.304 168.5 254.943 165.278C268.533 163.551 276.479 160.905 285.116 155.151C298.015 146.522 304.003 135.475 304.924 118.1C305.616 107.513 305.616 107.513 309.071 106.362C313.562 104.752 324.733 104.752 329.34 106.362C332.909 107.628 332.909 107.628 332.909 115.799C332.909 125.234 335.328 136.511 338.552 142.84C347.305 159.87 370.107 168.5 397.631 165.278C411.336 163.552 419.282 160.905 427.92 155.153C440.818 146.523 446.807 135.131 447.958 117.295C448.764 105.558 448.189 106.133 460.857 104.522C467.305 103.717 468.803 101.185 468.803 91.2894C468.803 83.4644 467.536 81.9696 456.826 77.3666L450.376 74.6045L440.357 71.499L432.987 69.8876C428.956 69.0823 423.774 68.3908 421.585 68.2757C419.282 68.2757 413.525 66.2044 407.767 63.3285C398.207 58.6104 397.747 58.4952 386.461 58.4952C373.563 58.4952 364.464 61.1422 357.093 66.8959C354.906 68.6211 350.299 70.8075 347.074 71.6128C343.734 72.4194 337.516 74.6051 333.255 76.4461C322.084 81.1642 316.326 80.934 302.046 75.1802C295.827 72.6497 289.953 70.5772 289.148 70.5772C288.34 70.5772 285.692 68.9672 283.274 67.0111C275.673 61.027 267.151 58.4952 254.022 58.4952C242.851 58.4952 242.161 58.7255 232.257 63.4437C225.577 66.6656 220.394 68.2757 217.285 68.2757C214.75 68.3908 209.223 69.0823 205.077 70.0028L185.039 73.3386ZM277.17 88.1826C290.988 92.6705 295.249 98.7683 295.365 114.187C295.48 122.358 295.02 125.005 292.832 129.491C285.232 145.026 263.58 153.772 237.898 151.815C218.206 150.204 208.071 144.681 202.659 132.484C199.204 124.544 198.743 105.558 201.967 99.6888C204.962 94.1653 210.721 90.369 220.163 87.8372C227.534 85.8811 231.565 85.6508 249.991 85.8811C265.883 86.2258 272.794 86.8016 277.17 88.1826ZM419.972 88.1826C433.793 92.6705 438.053 98.7683 438.169 114.187C438.284 122.358 437.823 125.005 435.635 129.491C428.034 145.026 406.383 153.772 380.701 151.815C361.009 150.204 350.874 144.681 345.461 132.484C342.006 124.544 341.546 105.558 344.77 99.6888C347.765 94.1653 353.523 90.369 362.966 87.8372C370.337 85.8811 374.367 85.6508 392.793 85.8811C408.686 86.2258 415.596 86.8016 419.972 88.1826Z" fill="#A66F49"/>
<path id="Vector_5" fill-rule="evenodd" clip-rule="evenodd" d="M288.225 -100.377L280.97 -95.6593L277.284 -99.2267C271.526 -104.865 268.762 -103.829 264.386 -94.5086C261.737 -88.7555 258.398 -88.0646 252.64 -91.8623C250.336 -93.473 247.457 -94.854 246.306 -94.854C243.772 -94.854 241.353 -90.9418 240.317 -85.7638C239.511 -81.5062 236.747 -77.594 234.444 -77.594C233.638 -77.594 230.643 -78.6296 227.765 -79.8955C223.388 -81.8516 222.006 -81.9667 219.588 -80.9311C216.824 -79.6652 216.593 -78.975 216.593 -71.3803C216.593 -65.8568 215.787 -61.5992 214.29 -58.3773C212.102 -53.5446 211.987 -53.4295 206.574 -53.4295C197.591 -53.4295 193.33 -48.9423 197.706 -43.9938C200.01 -41.5778 198.512 -39.046 194.022 -38.0104C185.729 -35.9392 183.311 -30.646 187.802 -25.008C190.912 -20.9807 190.797 -20.405 185.844 -18.1035C180.662 -15.5724 179.857 -12.6951 183.196 -9.1284C185.729 -6.36633 185.729 -6.25184 184.347 8.93759C182.966 23.6665 183.426 64.7455 185.039 69.0031C185.499 70.269 184.002 71.5349 179.511 73.8364C170.067 78.5539 169.377 79.4744 169.377 87.0691C169.377 96.8496 170.874 99.3813 177.323 100.302C183.887 101.222 188.033 102.718 189.185 104.559C189.645 105.365 190.106 109.047 190.106 112.844C190.106 121.014 192.64 132.521 195.749 138.504C204.502 155.535 227.304 164.164 254.944 160.943C268.533 159.217 276.479 156.57 285.116 150.817C298.015 142.187 304.003 131.14 304.925 113.765C305.616 103.178 305.616 103.178 309.071 102.028C313.562 100.417 324.733 100.417 329.339 102.028C332.91 103.294 332.91 103.294 332.91 111.464C332.91 120.9 335.328 132.176 338.553 138.505C347.305 155.535 370.107 164.165 397.631 160.944C411.336 159.217 419.282 156.571 427.92 150.818C440.818 142.188 446.807 130.796 447.958 112.96C448.764 101.223 448.189 101.799 460.857 100.187C467.306 99.382 468.803 96.8502 468.803 86.9547C468.803 79.1303 467.536 77.6341 456.826 73.0318L450.377 70.2697V58.7628C450.261 39.0862 447.498 25.1633 442.66 20.6754C441.048 19.1799 437.478 16.8784 434.599 15.4973C430.108 13.311 429.187 13.1958 427.805 14.692C426.423 16.073 426.768 17.3389 430.223 24.2428C434.484 32.758 438.284 47.1414 439.551 59.5688L440.357 67.1635L432.987 65.5522C428.956 64.7469 423.774 64.0567 421.585 63.9415C419.282 63.9415 413.524 61.8703 407.766 58.9937C398.207 54.2756 397.747 54.1604 386.461 54.1604C373.562 54.1604 364.464 56.8074 357.094 62.5605C354.906 64.2869 350.299 66.4727 347.075 67.2787C343.735 68.084 337.516 70.2703 333.255 72.1113C322.084 76.8294 316.326 76.5992 302.045 70.8454C295.827 68.3143 289.953 66.243 289.147 66.243C288.341 66.243 285.692 64.6317 283.274 62.6756C275.673 56.6922 267.151 54.1604 254.022 54.1604C242.851 54.1604 242.16 54.3907 232.256 59.1082C225.576 62.3302 220.394 63.9415 217.285 63.9415C214.751 64.0567 209.223 64.7469 205.078 65.6673C193.331 68.1991 194.252 69.6946 195.173 50.3634C195.864 33.7936 198.052 19.7556 200.586 14.9223C203.465 9.51395 226.267 -2.10808 248.84 -9.70214C276.825 -19.0227 308.264 -22.5901 343.735 -20.1734C374.138 -18.2173 382.2 -15.6862 415.828 2.3798C427.574 8.70862 438.515 13.7715 441.048 14.117C445.195 14.692 445.54 14.4617 446.806 11.0095C449.571 3.06998 447.382 -16.9521 442.776 -26.0423C439.321 -32.7159 439.091 -35.2477 441.048 -42.1516C442.43 -46.9849 442.43 -48.0205 440.703 -50.5516C439.091 -52.9683 437.939 -53.4282 433.333 -53.4282C430.338 -53.313 425.732 -52.8531 423.083 -52.3926C418.361 -51.4721 418.246 -51.4721 418.822 -54.4638C421.125 -65.7404 418.361 -68.2722 407.19 -65.3956C403.62 -64.4751 400.28 -63.8994 400.05 -64.2449C399.705 -64.5896 400.05 -68.0419 400.856 -71.8389C402.237 -78.0526 402.123 -79.0882 400.511 -80.8147C398.783 -82.4253 397.747 -82.4253 391.067 -81.1594C380.357 -78.9731 376.326 -80.0087 372.41 -85.9927C368.38 -91.861 364.694 -93.9322 360.894 -92.4367C358.821 -91.6314 356.633 -91.9761 352.487 -93.8171C348.11 -95.658 345.577 -96.1186 341.662 -95.5435C337.631 -94.8527 335.443 -95.3133 331.642 -97.2693C327.727 -99.2254 325.539 -99.5708 320.817 -98.9958C315.75 -98.4201 313.907 -98.8807 308.034 -101.757C304.349 -103.598 299.973 -105.094 298.36 -105.209C296.748 -105.209 292.256 -103.023 288.226 -100.376L288.225 -100.377ZM277.169 83.8472C290.989 88.335 295.25 94.4336 295.365 109.853C295.481 118.022 295.02 120.669 292.832 125.157C285.231 140.691 263.58 149.436 237.898 147.48C218.206 145.869 208.071 140.346 202.659 128.148C199.204 120.209 198.743 101.222 201.967 95.354C204.962 89.8305 210.72 86.0335 220.163 83.5017C227.534 81.5456 231.565 81.3154 249.991 81.5456C265.883 81.8911 272.793 82.4661 277.169 83.8472ZM419.972 83.8472C433.792 88.335 438.053 94.4336 438.168 109.853C438.284 118.022 437.823 120.669 435.635 125.157C428.034 140.691 406.383 149.436 380.701 147.48C361.009 145.869 350.874 140.346 345.462 128.148C342.007 120.209 341.546 101.222 344.77 95.354C347.765 89.8305 353.523 86.0335 362.966 83.5017C370.337 81.5456 374.368 81.3154 392.794 81.5456C408.686 81.8911 415.596 82.4661 419.972 83.8472Z" fill="#2C1B18"/>
<path id="Vector_6" fill-rule="evenodd" clip-rule="evenodd" d="M185.039 69.0031C185.499 70.269 184.002 71.5349 179.511 73.8364C170.215 78.4793 169.4 79.4456 169.377 86.7178V87.0697C169.377 96.8502 170.874 99.3806 177.322 100.302C183.887 101.222 188.034 102.718 189.186 104.559C189.645 105.365 190.107 109.047 190.107 112.844C190.107 121.014 192.64 132.522 195.75 138.504C204.502 155.535 227.304 164.164 254.943 160.943C268.533 159.216 276.479 156.57 285.116 150.817C298.015 142.187 304.003 131.141 304.924 113.765C305.616 103.178 305.616 103.178 309.071 102.028C313.562 100.418 324.733 100.418 329.34 102.028C332.909 103.293 332.909 103.293 332.909 111.464C332.909 120.899 335.328 132.176 338.552 138.506C347.305 155.535 370.107 164.164 397.631 160.943C411.336 159.217 419.282 156.57 427.92 150.818C440.818 142.188 446.807 130.796 447.958 112.96C448.764 101.222 448.189 101.799 460.857 100.187C467.305 99.382 468.803 96.8502 468.803 86.9539C468.803 79.1296 467.536 77.6347 456.826 73.0317L450.376 70.269L440.357 67.1641L432.987 65.5521C428.956 64.7475 423.774 64.056 421.585 63.9408C419.282 63.9408 413.525 61.8696 407.767 58.9937C398.207 54.2755 397.747 54.1604 386.461 54.1604C373.563 54.1604 364.464 56.8073 357.093 62.5611C354.906 64.2862 350.299 66.4726 347.074 67.2779C343.734 68.0839 337.516 70.2703 333.255 72.1112C322.084 76.8294 316.326 76.5991 302.046 70.8454C295.827 68.3149 289.953 66.2423 289.148 66.2423C288.34 66.2423 285.692 64.6323 283.274 62.6762C275.673 56.6922 267.151 54.1604 254.022 54.1604C242.851 54.1604 242.161 54.3907 232.257 59.1088C225.577 62.3308 220.394 63.9408 217.285 63.9408C214.75 64.056 209.223 64.7475 205.077 65.6673L185.039 69.0031ZM277.17 83.8478C290.988 88.3356 295.249 94.4335 295.365 109.853C295.48 118.023 295.02 120.67 292.832 125.156C285.232 140.691 263.58 149.437 237.898 147.479C218.206 145.869 208.071 140.346 202.659 128.149C199.204 120.209 198.743 101.222 201.967 95.354C204.962 89.8305 210.721 86.0341 220.163 83.5023C227.534 81.5462 231.565 81.316 249.991 81.5462C265.883 81.8904 272.794 82.4667 277.17 83.8478ZM419.972 83.8478C433.793 88.3356 438.053 94.4335 438.169 109.853C438.284 118.023 437.823 120.67 435.635 125.156C428.034 140.691 406.383 149.437 380.701 147.479C361.009 145.869 350.874 140.346 345.461 128.149C342.006 120.209 341.546 101.222 344.77 95.354C347.765 89.8305 353.523 86.0341 362.966 83.5023C370.337 81.5462 374.367 81.316 392.793 81.5462C408.686 81.8904 415.596 82.4667 419.972 83.8478Z" fill="#090E16"/>
</g>
</g>
</g>
</g>
</g>
</g>
<defs>
<filter id="filter0_d_0_1" x="0" y="0.983948" width="171.62" height="171.62" filterUnits="userSpaceOnUse" color-interpolation-filters="sRGB">
<feFlood flood-opacity="0" result="BackgroundImageFix"/>
<feColorMatrix in="SourceAlpha" type="matrix" values="0 0 0 0 0 0 0 0 0 0 0 0 0 0 0 0 0 0 127 0" result="hardAlpha"/>
<feOffset dy="4"/>
<feGaussianBlur stdDeviation="25"/>
<feComposite in2="hardAlpha" operator="out"/>
<feColorMatrix type="matrix" values="0 0 0 0 0 0 0 0 0 0 0 0 0 0 0 0 0 0 0.5 0"/>
<feBlend mode="normal" in2="BackgroundImageFix" result="effect1_dropShadow_0_1"/>
<feBlend mode="normal" in="SourceGraphic" in2="effect1_dropShadow_0_1" result="shape"/>
</filter>
<filter id="filter1_f_0_1" x="4.47626" y="-157" width="610.296" height="610.296" filterUnits="userSpaceOnUse" color-interpolation-filters="sRGB">
<feFlood flood-opacity="0" result="BackgroundImageFix"/>
<feBlend mode="normal" in="SourceGraphic" in2="BackgroundImageFix" result="shape"/>
<feGaussianBlur stdDeviation="25" result="effect1_foregroundBlur_0_1"/>
</filter>
<filter id="filter2_i_0_1" x="104.663" y="-105.209" width="430.095" height="602.209" filterUnits="userSpaceOnUse" color-interpolation-filters="sRGB">
<feFlood flood-opacity="0" result="BackgroundImageFix"/>
<feBlend mode="normal" in="SourceGraphic" in2="BackgroundImageFix" result="shape"/>
<feColorMatrix in="SourceAlpha" type="matrix" values="0 0 0 0 0 0 0 0 0 0 0 0 0 0 0 0 0 0 127 0" result="hardAlpha"/>
<feOffset dy="4"/>
<feGaussianBlur stdDeviation="2"/>
<feComposite in2="hardAlpha" operator="arithmetic" k2="-1" k3="1"/>
<feColorMatrix type="matrix" values="0 0 0 0 0 0 0 0 0 0 0 0 0 0 0 0 0 0 0.25 0"/>
<feBlend mode="normal" in2="shape" result="effect1_innerShadow_0_1"/>
</filter>
<clipPath id="clip0_0_1">
<rect width="1920" height="8320" fill="white" transform="translate(-640 -310)"/>
</clipPath>
</defs>
</svg>
