<svg width="37" height="37" viewBox="0 0 37 37" fill="none" xmlns="http://www.w3.org/2000/svg">
<g id="TypeScript" clip-path="url(#clip0_21_4110)">
<path id="Subtract" fill-rule="evenodd" clip-rule="evenodd" d="M33.251 0.20513H3.03608C1.49096 0.20513 0.238403 1.45769 0.238403 3.0028V33.2177C0.238403 34.7628 1.49096 36.0154 3.03608 36.0154H33.251C34.7961 36.0154 36.0486 34.7628 36.0486 33.2177V3.0028C36.0486 1.45769 34.7961 0.20513 33.251 0.20513ZM21.2934 32.1119V28.2483C21.9942 28.836 22.7555 29.2766 23.5773 29.5704C24.399 29.8642 25.2286 30.0111 26.0664 30.0111C26.5578 30.0111 26.9868 29.9668 27.3533 29.8782C27.7198 29.7897 28.026 29.667 28.2717 29.5101C28.5173 29.3531 28.7007 29.1679 28.8214 28.9547C28.9423 28.7414 29.0027 28.5099 29.0027 28.2605C29.0027 27.9224 28.906 27.6205 28.7127 27.3549C28.5194 27.0892 28.2556 26.8437 27.9212 26.6184C27.5869 26.393 27.1902 26.1758 26.731 25.9665C26.2719 25.7571 25.7764 25.5439 25.2447 25.3266C23.8913 24.7631 22.8825 24.0749 22.2179 23.262C21.5532 22.449 21.221 21.467 21.221 20.3161C21.221 19.4145 21.4022 18.6398 21.7647 17.9919C22.1273 17.344 22.6206 16.8107 23.2449 16.392C23.8692 15.9735 24.5923 15.6656 25.414 15.4685C26.2356 15.2713 27.1056 15.1727 28.0239 15.1727C28.9262 15.1727 29.7257 15.227 30.4225 15.3356C31.1193 15.4443 31.7618 15.6114 32.3498 15.8367V19.4467C32.0598 19.2455 31.7436 19.0684 31.4013 18.9156C31.0588 18.7625 30.7065 18.6358 30.344 18.5352C29.9815 18.4345 29.621 18.3601 29.2624 18.3118C28.9041 18.2636 28.5637 18.2394 28.2414 18.2394C27.7984 18.2394 27.3956 18.2816 27.0331 18.3661C26.6705 18.4507 26.3645 18.5693 26.1148 18.7224C25.8651 18.8753 25.6716 19.0584 25.5347 19.2717C25.3977 19.485 25.3293 19.7244 25.3293 19.99C25.3293 20.2798 25.4059 20.5393 25.5589 20.7687C25.7119 20.9981 25.9294 21.2155 26.2114 21.4207C26.4933 21.6261 26.8357 21.8272 27.2385 22.0245C27.6413 22.2217 28.0964 22.4248 28.6039 22.6342C29.2967 22.9239 29.9191 23.2318 30.4709 23.5577C31.0226 23.8838 31.496 24.252 31.8906 24.6625C32.2853 25.073 32.5875 25.5418 32.7969 26.0691C33.0063 26.5963 33.1111 27.2101 33.1111 27.9104C33.1111 28.8762 32.9278 29.6872 32.5613 30.3431C32.1947 30.9991 31.6973 31.5304 31.0689 31.9369C30.4407 32.3433 29.7095 32.6351 28.8758 32.8122C28.0421 32.9892 27.162 33.0778 26.2356 33.0778C25.285 33.0778 24.3808 32.9974 23.5229 32.8364C22.665 32.6753 21.9218 32.4339 21.2934 32.1119ZM19.8221 18.6337H14.8537V32.798H10.9178V18.6337H5.97363V15.4525H19.8221V18.6337Z" fill="#7B4AE2" fill-opacity="0.5"/>
</g>
<defs>
<clipPath id="clip0_21_4110">
<rect width="35.8102" height="35.8102" fill="white" transform="translate(0.238403 0.20513)"/>
</clipPath>
</defs>
</svg>
