<svg width="30" height="30" viewBox="0 0 30 30" fill="none" xmlns="http://www.w3.org/2000/svg">
<g id="WhatsappLogo">
<path id="Vector" d="M5.32039 20.7422C3.92455 18.3872 3.4363 15.6037 3.94731 12.9142C4.45831 10.2248 5.93342 7.81431 8.09571 6.13538C10.258 4.45645 12.9588 3.6245 15.691 3.79573C18.4232 3.96696 20.999 5.12958 22.9347 7.06534C24.8705 9.0011 26.0331 11.5769 26.2043 14.3091C26.3756 17.0413 25.5436 19.7421 23.8647 21.9044C22.1858 24.0666 19.7753 25.5418 17.0858 26.0528C14.3964 26.5638 11.6129 26.0755 9.25789 24.6797V24.6797L5.36726 25.7812C5.20786 25.8279 5.03885 25.8307 4.87795 25.7896C4.71705 25.7484 4.57019 25.6648 4.45275 25.5473C4.33532 25.4299 4.25163 25.283 4.21048 25.1221C4.16932 24.9612 4.1722 24.7922 4.21882 24.6328L5.32039 20.7422Z" stroke="#7B4AE2" stroke-opacity="0.5" stroke-linecap="round" stroke-linejoin="round"/>
<path id="Vector_2" d="M17.8242 21.5625C16.5907 21.5656 15.3687 21.3249 14.2285 20.8543C13.0882 20.3836 12.0522 19.6923 11.1799 18.8201C10.3077 17.9478 9.61639 16.9118 9.14575 15.7716C8.67512 14.6313 8.43444 13.4093 8.43753 12.1758C8.44063 11.3076 8.7877 10.476 9.40272 9.86315C10.0177 9.25033 10.8506 8.90624 11.7188 8.90624V8.90624C11.862 8.9051 12.0029 8.94259 12.1267 9.01477C12.2504 9.08695 12.3524 9.19115 12.4219 9.3164L13.793 11.707C13.8745 11.8524 13.9164 12.0166 13.9143 12.1832C13.9123 12.3498 13.8664 12.513 13.7813 12.6562L12.6797 14.4961C13.2439 15.7513 14.2487 16.7561 15.5039 17.3203L17.3438 16.2187C17.487 16.1336 17.6502 16.0878 17.8168 16.0857C17.9834 16.0836 18.1477 16.1255 18.293 16.207L20.6836 17.5781C20.8089 17.6476 20.9131 17.7496 20.9853 17.8734C21.0574 17.9971 21.0949 18.138 21.0938 18.2812C21.0907 19.1485 20.7456 19.9796 20.1335 20.5939C19.5213 21.2083 18.6915 21.5563 17.8242 21.5625V21.5625Z" stroke="#7B4AE2" stroke-opacity="0.5" stroke-linecap="round" stroke-linejoin="round"/>
</g>
</svg>
